<svg id="Grupo_1612" data-name="Grupo 1612" xmlns="http://www.w3.org/2000/svg" width="125.994" height="121.773" viewBox="0 0 125.994 121.773">
  <path id="checkbox" d="M97.424,110.356H12.932A12.947,12.947,0,0,1,0,97.424V12.932A12.947,12.947,0,0,1,12.932,0H97.424a12.947,12.947,0,0,1,12.932,12.932V97.424A12.947,12.947,0,0,1,97.424,110.356ZM12.932,8.622a4.316,4.316,0,0,0-4.311,4.311V97.424a4.316,4.316,0,0,0,4.311,4.311H97.424a4.316,4.316,0,0,0,4.311-4.311V9.656C101.735,7.279,99.8,8.622,12.932,8.622Z" transform="translate(0 11.416)" fill="#bebebe"/>
  <path id="check" d="M941.748,3839a10.659,10.659,0,0,0-7.533,3.555c-17.34,18.73-33.171,37.094-49.825,55.43l-19.578-16.914a10.438,10.438,0,0,0-15.409,1.83,12.476,12.476,0,0,0,1.707,16.625h.005l27.4,23.611a10.371,10.371,0,0,0,14.609-.922c19.706-21.281,37.362-42.18,56.618-62.988a12.46,12.46,0,0,0,.145-16.7A10.507,10.507,0,0,0,941.748,3839Z" transform="translate(-827.029 -3838.998)" fill="#41e3ae"/>
</svg>
