<svg id="Grupo_1611" data-name="Grupo 1611" xmlns="http://www.w3.org/2000/svg" width="409.162" height="50.188" viewBox="0 0 409.162 50.188">
  <g id="Grupo_1" data-name="Grupo 1">
    <path id="Caminho_8" data-name="Caminho 8" d="M282.627,88.28a20.975,20.975,0,0,1-1.409,7.818,12.867,12.867,0,0,1-4.412,5.75,13.356,13.356,0,0,1-4.413,2,23.84,23.84,0,0,1-6.01.678h-7.324V73.256q2.487-.284,4.39-.376t3.545-.092a20.072,20.072,0,0,1,7.511,1.22,11.843,11.843,0,0,1,7.37,8.262,23.219,23.219,0,0,1,.752,6.009m-4.179.256a21.5,21.5,0,0,0-.518-4.866,9.352,9.352,0,0,0-1.836-3.857,8.608,8.608,0,0,0-3.507-2.518A14.658,14.658,0,0,0,267.1,76.4c-.627,0-1.28.017-1.955.047s-1.343.093-2,.187V101.1h3.909a12.939,12.939,0,0,0,5.346-.988,9.244,9.244,0,0,0,3.53-2.68,10.587,10.587,0,0,0,1.932-3.976,19.685,19.685,0,0,0,.588-4.917" transform="translate(-116.89 -63.503)" fill="#9ea6c1"/>
    <path id="Caminho_9" data-name="Caminho 9" d="M299.164,90.814a17.367,17.367,0,0,1-.563,4.438,10.726,10.726,0,0,1-1.81,3.778,8.943,8.943,0,0,1-3.215,2.629,10.611,10.611,0,0,1-4.789.986,10.921,10.921,0,0,1-4.764-.938,8.643,8.643,0,0,1-3.17-2.535,10.48,10.48,0,0,1-1.783-3.732,17.492,17.492,0,0,1-.564-4.485,14.977,14.977,0,0,1,.658-4.46,10.585,10.585,0,0,1,1.972-3.685A9.642,9.642,0,0,1,284.4,80.3a10.445,10.445,0,0,1,4.577-.94,10.642,10.642,0,0,1,4.695.94,8.8,8.8,0,0,1,3.147,2.512,10.306,10.306,0,0,1,1.785,3.639,16.572,16.572,0,0,1,.563,4.366m-4.179,0a16.186,16.186,0,0,0-.259-2.886,8.01,8.01,0,0,0-.921-2.583,5.068,5.068,0,0,0-1.837-1.855,5.909,5.909,0,0,0-3.062-.7,5.837,5.837,0,0,0-2.992.7A5.4,5.4,0,0,0,284,85.345a8.121,8.121,0,0,0-1.013,2.583,13.712,13.712,0,0,0-.306,2.886,17.27,17.27,0,0,0,.259,2.959,7.92,7.92,0,0,0,.965,2.7,5.984,5.984,0,0,0,1.885,1.972,5.394,5.394,0,0,0,3.017.774,5.724,5.724,0,0,0,3.11-.774,5.413,5.413,0,0,0,1.883-1.972,8.574,8.574,0,0,0,.921-2.7,17.426,17.426,0,0,0,.259-2.959" transform="translate(-109.247 -60.92)" fill="#9ea6c1"/>
    <path id="Caminho_10" data-name="Caminho 10" d="M305.2,99.153a7.334,7.334,0,0,0,4.133-1.223,4.818,4.818,0,0,0,1.172-1.107,1.888,1.888,0,0,0,.425-1.057V79.576h.281a2.061,2.061,0,0,0,.258-.024,2.02,2.02,0,0,1,.3-.025A3.627,3.627,0,0,1,314,80.21a2.892,2.892,0,0,1,.915,2.463v19.2h-3.989V99.85a8.5,8.5,0,0,1-2.629,1.9,9.9,9.9,0,0,1-4.369.832,8.7,8.7,0,0,1-4.225-.843,5.606,5.606,0,0,1-2.23-2.161,7.208,7.208,0,0,1-.868-2.886c-.093-1.049-.142-2.06-.142-3.029V79.576h.283a2.053,2.053,0,0,0,.259-.024,2,2,0,0,1,.3-.025,3.713,3.713,0,0,1,2.23.66,2.829,2.829,0,0,1,.915,2.446v11.06a13.075,13.075,0,0,0,.258,2.918,2.685,2.685,0,0,0,1.057,1.645,4.121,4.121,0,0,0,1.525.708,8.585,8.585,0,0,0,1.9.188" transform="translate(-102.188 -60.854)" fill="#9ea6c1"/>
    <path id="Caminho_11" data-name="Caminho 11" d="M314.262,100.9a6.976,6.976,0,0,1-.4-1.949c-.046-.7-.071-1.4-.071-2.089V74.889h.281a1.812,1.812,0,0,0,.261-.024,2.191,2.191,0,0,1,.305-.024,3.774,3.774,0,0,1,2.207.653,2.708,2.708,0,0,1,.939,2.378V81.6h6.994v3.427h-6.994V97.144q0,3.849,3.051,3.85a3.8,3.8,0,0,0,1.408-.258,6.119,6.119,0,0,0,1.175-.61,7.65,7.65,0,0,0,.868-.683,3.384,3.384,0,0,0,.446-.468,12.9,12.9,0,0,1,.964,1.361,2.44,2.44,0,0,1,.4,1.268,1.451,1.451,0,0,1-.422.915,4.26,4.26,0,0,1-1.174.914,7.67,7.67,0,0,1-1.854.708,9.893,9.893,0,0,1-2.417.279,7.127,7.127,0,0,1-3.9-.936,5.114,5.114,0,0,1-2.064-2.583" transform="translate(-95.38 -62.695)" fill="#9ea6c1"/>
    <path id="Caminho_12" data-name="Caminho 12" d="M344.29,90.814a17.365,17.365,0,0,1-.564,4.438,10.721,10.721,0,0,1-1.808,3.778,8.969,8.969,0,0,1-3.217,2.629,10.617,10.617,0,0,1-4.788.986,10.938,10.938,0,0,1-4.767-.938,8.654,8.654,0,0,1-3.169-2.535A10.483,10.483,0,0,1,324.2,95.44a17.49,17.49,0,0,1-.564-4.485,14.922,14.922,0,0,1,.657-4.46,10.558,10.558,0,0,1,1.971-3.685,9.636,9.636,0,0,1,3.264-2.512,10.439,10.439,0,0,1,4.576-.94,10.657,10.657,0,0,1,4.7.94,8.78,8.78,0,0,1,3.144,2.512,10.257,10.257,0,0,1,1.786,3.639,16.57,16.57,0,0,1,.564,4.366m-4.179,0a16.165,16.165,0,0,0-.261-2.886,8,8,0,0,0-.919-2.583,5.083,5.083,0,0,0-1.839-1.855,5.912,5.912,0,0,0-3.063-.7,5.826,5.826,0,0,0-2.99.7,5.394,5.394,0,0,0-1.909,1.855,8.042,8.042,0,0,0-1.013,2.583,13.645,13.645,0,0,0-.308,2.886,17.409,17.409,0,0,0,.258,2.959,7.972,7.972,0,0,0,.967,2.7,5.978,5.978,0,0,0,1.888,1.972,5.377,5.377,0,0,0,3.014.774,5.723,5.723,0,0,0,3.111-.774,5.439,5.439,0,0,0,1.885-1.972,8.567,8.567,0,0,0,.919-2.7,17.405,17.405,0,0,0,.261-2.959" transform="translate(-91.512 -60.92)" fill="#9ea6c1"/>
    <path id="Caminho_13" data-name="Caminho 13" d="M342.575,79.734a3.611,3.611,0,0,1,1.949.542,2.406,2.406,0,0,1,1.057,1.807,6.872,6.872,0,0,1,1.972-1.855,5.4,5.4,0,0,1,3.051-.869,6.853,6.853,0,0,1,1.1.1,5.066,5.066,0,0,1,1.1.3,2.243,2.243,0,0,1,.844.586,1.446,1.446,0,0,1,.328.986,4.065,4.065,0,0,1-.375,1.62,8.991,8.991,0,0,1-.751,1.432,4.694,4.694,0,0,0-1.314-.868,4.5,4.5,0,0,0-1.786-.305,4.55,4.55,0,0,0-1.525.258,4.5,4.5,0,0,0-1.29.7,3.59,3.59,0,0,0-.891,1.009,2.287,2.287,0,0,0-.329,1.173v15.588h-3.99V79.781h.328a1.789,1.789,0,0,0,.283-.024,1.481,1.481,0,0,1,.232-.024" transform="translate(-84.398 -60.92)" fill="#9ea6c1"/>
    <path id="Caminho_14" data-name="Caminho 14" d="M374.909,98.227V73.014a1.318,1.318,0,0,0,.329-.046,3.33,3.33,0,0,0,.354-.022,4.071,4.071,0,0,1,.446-.024,3.732,3.732,0,0,1,.89.116,2.441,2.441,0,0,1,.87.423,2.221,2.221,0,0,1,.657.893,3.858,3.858,0,0,1,.258,1.525v28.592h-3.8L358.948,80.1v24.367h-3.8V73.156a4.7,4.7,0,0,1,.8-.164,7.785,7.785,0,0,1,1.032-.07,3.158,3.158,0,0,1,1.621.351,3.463,3.463,0,0,1,1.1,1.2Z" transform="translate(-79.127 -63.45)" fill="#9ea6c1"/>
    <path id="Caminho_15" data-name="Caminho 15" d="M394.627,96.824a12.394,12.394,0,0,0,.1,1.761,1.836,1.836,0,0,0,.349.939,1.219,1.219,0,0,0,.7.4,5.672,5.672,0,0,0,1.152.093v1.878a6.3,6.3,0,0,1-1.035.235,8.129,8.129,0,0,1-1.267.093,5.346,5.346,0,0,1-2.566-.585,2.554,2.554,0,0,1-1.282-2.089,10.688,10.688,0,0,1-2.81,2,9.664,9.664,0,0,1-4.3.822,11.142,11.142,0,0,1-2.457-.283,5.955,5.955,0,0,1-2.246-1.032A5.807,5.807,0,0,1,377.3,99.03a7.06,7.06,0,0,1-.655-3.24,6.184,6.184,0,0,1,1.241-3.99,8.83,8.83,0,0,1,3.064-2.441,13.669,13.669,0,0,1,3.908-1.222,29.731,29.731,0,0,1,3.811-.375h.983a8.83,8.83,0,0,1,.983.046v-.7a4.617,4.617,0,0,0-1.008-3.216q-1.009-1.1-3.876-1.1a10.362,10.362,0,0,0-3.567.539,12.863,12.863,0,0,0-2.818,1.479H378.9a6.988,6.988,0,0,1-.633-1.315,3.493,3.493,0,0,1-.261-1.127,1.485,1.485,0,0,1,.754-1.151,7.774,7.774,0,0,1,1.947-.96,15.262,15.262,0,0,1,2.654-.659,17.988,17.988,0,0,1,2.864-.235,13.214,13.214,0,0,1,3.995.517,6.176,6.176,0,0,1,2.6,1.55,5.7,5.7,0,0,1,1.4,2.583,14.284,14.284,0,0,1,.4,3.567Zm-3.943-6.009h-1.353a25.384,25.384,0,0,0-3.04.188,10.873,10.873,0,0,0-2.8.7,5.366,5.366,0,0,0-2.057,1.433,3.563,3.563,0,0,0-.793,2.417,3.947,3.947,0,0,0,.84,2.487,3.784,3.784,0,0,0,3.133,1.082,7.522,7.522,0,0,0,2.314-.354,8.882,8.882,0,0,0,1.939-.868,5.084,5.084,0,0,0,1.33-1.128,1.885,1.885,0,0,0,.491-1.172Z" transform="translate(-70.677 -60.92)" fill="#9ea6c1"/>
    <path id="Caminho_16" data-name="Caminho 16" d="M395.619,100.9a6.989,6.989,0,0,1-.4-1.949c-.046-.7-.071-1.4-.071-2.089V74.889h.282a1.809,1.809,0,0,0,.26-.024,2.2,2.2,0,0,1,.305-.024,3.773,3.773,0,0,1,2.206.653,2.707,2.707,0,0,1,.939,2.378V81.6h6.994v3.427h-6.994V97.144q0,3.849,3.051,3.85a3.8,3.8,0,0,0,1.408-.258,6.106,6.106,0,0,0,1.174-.61,7.635,7.635,0,0,0,.868-.683,3.434,3.434,0,0,0,.446-.468,13.133,13.133,0,0,1,.965,1.361,2.449,2.449,0,0,1,.4,1.268,1.45,1.45,0,0,1-.422.915,4.253,4.253,0,0,1-1.174.914,7.672,7.672,0,0,1-1.853.708,9.9,9.9,0,0,1-2.418.279,7.127,7.127,0,0,1-3.9-.936,5.114,5.114,0,0,1-2.064-2.583" transform="translate(-63.405 -62.695)" fill="#9ea6c1"/>
    <path id="Caminho_17" data-name="Caminho 17" d="M416.319,99.153a7.324,7.324,0,0,0,4.131-1.223,4.787,4.787,0,0,0,1.173-1.107,1.885,1.885,0,0,0,.424-1.057V79.576h.283a2.057,2.057,0,0,0,.258-.024,2,2,0,0,1,.3-.025,3.627,3.627,0,0,1,2.232.683,2.9,2.9,0,0,1,.915,2.463v19.2h-3.991V99.85a8.5,8.5,0,0,1-2.629,1.9,9.89,9.89,0,0,1-4.367.832,8.7,8.7,0,0,1-4.225-.843,5.588,5.588,0,0,1-2.229-2.161,7.153,7.153,0,0,1-.869-2.886c-.1-1.049-.142-2.06-.142-3.029V79.576h.283a1.978,1.978,0,0,0,.256-.024,2.041,2.041,0,0,1,.307-.025,3.706,3.706,0,0,1,2.229.66,2.827,2.827,0,0,1,.915,2.446v11.06a13.083,13.083,0,0,0,.26,2.918,2.674,2.674,0,0,0,1.055,1.645,4.145,4.145,0,0,0,1.528.708,8.544,8.544,0,0,0,1.9.188" transform="translate(-58.517 -60.854)" fill="#9ea6c1"/>
    <path id="Caminho_18" data-name="Caminho 18" d="M427.168,79.734a3.611,3.611,0,0,1,1.949.542,2.407,2.407,0,0,1,1.058,1.807,6.854,6.854,0,0,1,1.972-1.855,5.405,5.405,0,0,1,3.051-.869,6.863,6.863,0,0,1,1.1.1,5.089,5.089,0,0,1,1.1.3,2.241,2.241,0,0,1,.844.586,1.444,1.444,0,0,1,.327.986,4.066,4.066,0,0,1-.375,1.62,9.124,9.124,0,0,1-.751,1.432,4.7,4.7,0,0,0-1.314-.868,4.5,4.5,0,0,0-1.786-.305,4.546,4.546,0,0,0-1.525.258,4.5,4.5,0,0,0-1.29.7,3.593,3.593,0,0,0-.892,1.009,2.287,2.287,0,0,0-.33,1.173v15.588h-3.988V79.781h.327a1.784,1.784,0,0,0,.283-.024,1.481,1.481,0,0,1,.232-.024" transform="translate(-51.152 -60.92)" fill="#9ea6c1"/>
    <path id="Caminho_19" data-name="Caminho 19" d="M448.134,99.219a8.8,8.8,0,0,0,2.371-.283,7.342,7.342,0,0,0,1.736-.7,8.378,8.378,0,0,0,1.247-.868,9.065,9.065,0,0,0,.843-.82,9.52,9.52,0,0,1,.918,1.407,2.772,2.772,0,0,1,.4,1.174,1.572,1.572,0,0,1-.233.784,3.034,3.034,0,0,1-.8.832,9.521,9.521,0,0,1-2.769,1.358,14.727,14.727,0,0,1-8.24-.088,8.776,8.776,0,0,1-3.417-2.042,9.744,9.744,0,0,1-2.325-3.686,15.893,15.893,0,0,1-.854-5.564,13.65,13.65,0,0,1,.868-5.118,10.232,10.232,0,0,1,2.279-3.544,8.869,8.869,0,0,1,3.214-2.042,10.826,10.826,0,0,1,3.733-.657,9.653,9.653,0,0,1,4.107.8A7.723,7.723,0,0,1,454,82.293a8.863,8.863,0,0,1,1.6,3.1,12.862,12.862,0,0,1,.517,3.637c0,.439-.009.886-.024,1.339a11.259,11.259,0,0,1-.118,1.293H441.186a9.125,9.125,0,0,0,1.808,5.483,6.2,6.2,0,0,0,5.141,2.076m3.989-10.565a10.08,10.08,0,0,0-.258-2.347,5.178,5.178,0,0,0-.863-1.9,4.174,4.174,0,0,0-1.613-1.291,5.8,5.8,0,0,0-2.456-.469,5.357,5.357,0,0,0-4,1.6,6.7,6.7,0,0,0-1.754,4.413Z" transform="translate(-46.954 -60.92)" fill="#9ea6c1"/>
    <g id="Grupo_930" data-name="Grupo 930">
      <g id="Grupo_690" data-name="Grupo 690">
        <g id="Grupo_1-2" data-name="Grupo 1">
          <path id="Caminho_1" data-name="Caminho 1" d="M222.237,82.618l-4.05-4.05-3.88,3.883a5.284,5.284,0,0,0,0,7.445l4.047,4.048,3.883-3.885a5.28,5.28,0,0,0,0-7.442" transform="translate(-134.755 -61.158)" fill="#9ea6c1"/>
          <path id="Caminho_2" data-name="Caminho 2" d="M194.353,82.444l-3.879-3.879-4.053,4.054a5.275,5.275,0,0,0,0,7.442l3.88,3.882,4.051-4.054a5.286,5.286,0,0,0,0-7.445" transform="translate(-145.878 -61.159)" fill="#9ea6c1" fill-rule="evenodd"/>
          <path id="Caminho_3" data-name="Caminho 3" d="M259.7,87.412,239.954,67.665a5.286,5.286,0,0,0-7.449,0l-15.86,15.865,4.047,4.05a5.284,5.284,0,0,1,0,7.443l-3.883,3.883,15.7,15.7a5.281,5.281,0,0,0,7.449,0L259.7,94.857a5.286,5.286,0,0,0,0-7.445M247.07,89.7a7.066,7.066,0,0,1-2.242,5.3c-2.286,2.219-4.666,4.341-7.043,6.463a2.2,2.2,0,0,1-.965.478c-.039.01-.077.021-.117.029l-.127.018a2.35,2.35,0,0,1-.346.029h-.024a2.4,2.4,0,0,1-.334-.029,2.268,2.268,0,0,1-1.216-.534c-2.36-2.1-4.724-4.206-6.994-6.405a6.838,6.838,0,0,1-2.268-5.288c0-.029-.006-.059-.006-.088a6.051,6.051,0,0,1,.395-2.137c.018-.053.038-.1.057-.158.013-.031.024-.063.038-.092a5.487,5.487,0,0,1,2.574-2.889,6.052,6.052,0,0,1,1.9-.7c.162-.031.32-.056.481-.073.018,0,.039,0,.059-.006.168-.015.333-.022.5-.024.028,0,.053,0,.08,0s.06,0,.091,0c.078,0,.157.007.235.013a6.06,6.06,0,0,1,4.433,2.284,6.071,6.071,0,0,1,9.54.029c.073.092.144.186.211.283.038.053.073.108.108.162.077.117.152.239.221.364.011.021.025.042.036.064.083.153.16.312.228.474l.027.056c.069.165.129.333.183.505l.021.066c.052.169.1.343.134.518.006.029.01.057.015.085.034.172.062.347.08.525,0,.036.006.073.008.11.007.076.014.15.018.225s0,.148.005.222c0,.031,0,.06,0,.092Z" transform="translate(-133.21 -66.119)" fill="#9ea6c1"/>
          <path id="Caminho_4" data-name="Caminho 4" d="M203.513,76.387a2.686,2.686,0,1,0,2.686,2.686,2.688,2.688,0,0,0-2.686-2.686" transform="translate(-139.52 -62.028)" fill="#9ea6c1"/>
          <path id="Caminho_5" data-name="Caminho 5" d="M223.884,94.81a5.286,5.286,0,0,1,0-7.445l3.883-3.883-15.7-15.7a5.284,5.284,0,0,0-7.449,0l-15.691,15.7,3.879,3.879a5.286,5.286,0,0,1,0,7.445l-4.052,4.054,15.865,15.87a5.286,5.286,0,0,0,7.449,0l15.862-15.867Zm-16.578,8.747a1.482,1.482,0,1,1-2.964,0V92.993l-6.169-3.525a1.482,1.482,0,0,1,1.47-2.574l6.917,3.95a1.482,1.482,0,0,1,.746,1.287Zm1.02-14.789a5.651,5.651,0,1,1,5.651-5.651,5.658,5.658,0,0,1-5.651,5.651m10.192.7-6.169,3.525v10.564a1.482,1.482,0,1,1-2.964,0V92.132a1.484,1.484,0,0,1,.747-1.287l6.916-3.95a1.482,1.482,0,1,1,1.47,2.574" transform="translate(-144.334 -66.072)" fill="#9ea6c1"/>
          <path id="Caminho_6" data-name="Caminho 6" d="M178.1,94.014l6.98-6.982a.893.893,0,0,0-1.263-1.263L178.1,91.486V86.905l3.864-3.864a.894.894,0,0,0-1.265-1.265l-2.6,2.6V79.592a.894.894,0,0,0-1.788,0v4.816l-2.631-2.631a.894.894,0,0,0-1.263,1.265l3.894,3.894v4.581l-5.748-5.748a.894.894,0,0,0-1.265,1.263l7.012,7.014v4.434c.3.025.592.05.894.05s.6-.027.894-.052Z" transform="translate(-152.2 -61.106)" fill="#9ea6c1"/>
          <path id="Caminho_7" data-name="Caminho 7" d="M197.545,87.582l4.052-4.054L185.731,67.659a5.283,5.283,0,0,0-7.45,0L158.537,87.407a5.276,5.276,0,0,0,0,7.445L178.281,114.6a5.29,5.29,0,0,0,7.45,0l15.692-15.7-3.879-3.882a5.275,5.275,0,0,1,0-7.442m-5.053,5.762c0,.038,0,.076,0,.113a10.184,10.184,0,0,1-.381,2.76c-.018.069-.038.136-.057.2-.011.041-.022.083-.034.122a6.989,6.989,0,0,1-1.942,3.149A10.391,10.391,0,0,1,174.1,99.9a7,7,0,0,1-1.33-1.6c-.07-.119-.139-.239-.2-.364-.036-.07-.07-.138-.1-.21-.076-.152-.147-.309-.214-.469-.011-.028-.024-.056-.035-.084-.081-.2-.154-.4-.221-.611l-.025-.074c-.067-.211-.126-.429-.178-.652l-.021-.084c-.05-.22-.092-.442-.129-.67-.006-.036-.011-.073-.015-.109-.032-.222-.06-.446-.078-.676,0-.047,0-.1-.008-.143-.005-.1-.012-.194-.015-.292s0-.192-.006-.287c0-.039-.006-.078-.006-.119l0-.042,0-.063c0-.109-.034-.213-.034-.323a10.372,10.372,0,0,1,.5-3.041c.052-.185.106-.368.169-.547a9.98,9.98,0,0,1,.394-.943,9.793,9.793,0,0,1,.554-1.02c.107-.172.21-.344.327-.511.088-.126.155-.267.25-.39,2.213-2.865,4.518-5.605,6.819-8.346a1.992,1.992,0,0,1,.933-.617c.038-.013.074-.028.112-.038s.082-.017.126-.025a1.76,1.76,0,0,1,.333-.035h.024a1.642,1.642,0,0,1,.322.036,2,2,0,0,1,1.179.69c2.283,2.717,4.57,5.433,6.766,8.271.13.168.229.358.35.534.057.081.108.164.162.248a10.407,10.407,0,0,1,.744,1.369c.074.164.148.326.214.492a10.127,10.127,0,0,1,.364,1.169c.077.292.158.581.211.883.035.22.045.453.067.681a10.163,10.163,0,0,1,.115,1.136c0,.108-.028.207-.031.313Z" transform="translate(-157 -66.122)" fill="#9ea6c1"/>
        </g>
        <path id="Caminho_132" data-name="Caminho 132" d="M44.465,8.672s2.979.834,3.277,1.043,6.226,4.29,6.226,4.528-.06,1.609,0,2.264.566,2.353,0,3.307-1.7,2.77-2.413,3.158-2.711,1.37-2.86,1.43a4.431,4.431,0,0,1-2.175.8,4.524,4.524,0,0,1-4.8-3.4c-.923-2.83-2.592-4.29-1.758-5.869a21.992,21.992,0,0,0,1.311-3.485,6.806,6.806,0,0,1,1.311-2.324C43.1,9.685,44.465,8.672,44.465,8.672Z" transform="translate(36.027 7.862)" fill="#9ea6c1"/>
      </g>
      <path id="Caminho_134" data-name="Caminho 134" d="M2861.16,3876.892a11.521,11.521,0,0,0,3.158.656,11.006,11.006,0,0,1,3.754,1.04,32.777,32.777,0,0,1,1.459,3.04c.029.388.566,1.818.626,2.232s.864,2.237,0,3.04a31.083,31.083,0,0,0-2.265,2.8c-.445.5-.953,1.25-1.519,1.309a16.043,16.043,0,0,0-2.92,1.729h-.832a2.305,2.305,0,0,1-1.61-.178c-1.014-.417-3.278-.209-3.992-1.907s-1.074-1.312-1.192-3.754a35.412,35.412,0,0,1-.208-5.866c.237-1.432.536-2.654,1.013-3.038a3.8,3.8,0,0,1,1.34-.836,26.428,26.428,0,0,1,2.86-.269Z" transform="translate(-2817.824 -3859.942)" fill="#9ea6c1"/>
    </g>
  </g>
</svg>
